<svg width="26" height="26" viewBox="0 0 26 26" fill="none" xmlns="http://www.w3.org/2000/svg">
<path d="M19 2.5V7V11.5V16L16 14.5L13 13L10 14.5L7 16V11.5V7V2.5" stroke="#0A0C10" stroke-width="2" stroke-linecap="round" stroke-linejoin="round"/>
<path d="M19 1H13H7M4 25H22C22.7956 25 23.5587 24.6839 24.1213 24.1213C24.6839 23.5587 25 22.7956 25 22V4C25 3.20435 24.6839 2.44129 24.1213 1.87868C23.5587 1.31607 22.7956 1 22 1H4C3.20435 1 2.44129 1.31607 1.87868 1.87868C1.31607 2.44129 1 3.20435 1 4V22C1 22.7956 1.31607 23.5587 1.87868 24.1213C2.44129 24.6839 3.20435 25 4 25Z" stroke="#0A0C10" stroke-width="2" stroke-linecap="round" stroke-linejoin="round"/>
</svg>
