<svg width="24" height="23" viewBox="0 0 24 23" fill="none" xmlns="http://www.w3.org/2000/svg">
<path d="M11.6818 6.68423L4.00032 14.1526V22.2131C4.00032 22.4218 4.07055 22.6219 4.19556 22.7695C4.32058 22.9171 4.49013 23 4.66693 23L9.33574 22.9857C9.51196 22.9847 9.68066 22.9013 9.80495 22.7539C9.92925 22.6064 9.99902 22.4068 9.99902 22.1988V17.4916C9.99902 17.2829 10.0693 17.0827 10.1943 16.9351C10.3193 16.7876 10.4888 16.7047 10.6656 16.7047H13.3321C13.5089 16.7047 13.6784 16.7876 13.8035 16.9351C13.9285 17.0827 13.9987 17.2829 13.9987 17.4916V22.1954C13.9984 22.2989 14.0155 22.4015 14.0489 22.4973C14.0822 22.593 14.1313 22.6801 14.1932 22.7534C14.2551 22.8267 14.3287 22.8849 14.4097 22.9246C14.4908 22.9643 14.5776 22.9848 14.6653 22.9848L19.3325 23C19.5093 23 19.6788 22.9171 19.8038 22.7695C19.9289 22.6219 19.9991 22.4218 19.9991 22.2131V14.1472L12.3193 6.68423C12.229 6.59832 12.1165 6.55148 12.0005 6.55148C11.8846 6.55148 11.7721 6.59832 11.6818 6.68423ZM23.8155 11.7603L20.3324 8.37119V1.55894C20.3324 1.40241 20.2797 1.25229 20.186 1.14161C20.0922 1.03093 19.965 0.96875 19.8324 0.96875H17.4993C17.3667 0.96875 17.2395 1.03093 17.1457 1.14161C17.052 1.25229 16.9993 1.40241 16.9993 1.55894V5.13007L13.2692 1.5073C12.9112 1.15957 12.462 0.969445 11.9984 0.969445C11.5349 0.969445 11.0857 1.15957 10.7277 1.5073L0.181444 11.7603C0.130818 11.8097 0.0889323 11.8704 0.0581813 11.9389C0.0274303 12.0075 0.00841634 12.0824 0.00222573 12.1596C-0.00396488 12.2368 0.00278923 12.3147 0.0221021 12.3888C0.041415 12.4629 0.0729083 12.5318 0.114782 12.5915L1.1772 14.1162C1.21896 14.1761 1.27033 14.2258 1.32835 14.2622C1.38638 14.2987 1.44994 14.3213 1.51538 14.3288C1.58082 14.3362 1.64686 14.3284 1.70973 14.3056C1.77259 14.2829 1.83104 14.2458 1.88173 14.1964L11.6818 4.66776C11.7721 4.58185 11.8846 4.535 12.0005 4.535C12.1165 4.535 12.229 4.58185 12.3193 4.66776L22.1198 14.1964C22.1704 14.2458 22.2287 14.283 22.2915 14.3058C22.3543 14.3286 22.4202 14.3365 22.4856 14.3292C22.551 14.3219 22.6145 14.2995 22.6726 14.2632C22.7306 14.2269 22.782 14.1774 22.8239 14.1177L23.8863 12.593C23.9281 12.5329 23.9595 12.4637 23.9786 12.3893C23.9976 12.3148 24.0041 12.2367 23.9975 12.1593C23.9909 12.0819 23.9714 12.0068 23.9402 11.9384C23.909 11.8699 23.8666 11.8094 23.8155 11.7603Z" fill="black"/>
</svg>
