<svg width="25" height="26" viewBox="0 0 25 26" fill="none" xmlns="http://www.w3.org/2000/svg">
<path d="M1.5 21.3333C1.5 19.9188 2.07946 18.5623 3.11091 17.5621C4.14236 16.5619 5.54131 16 7 16H18C19.4587 16 20.8576 16.5619 21.8891 17.5621C22.9205 18.5623 23.5 19.9188 23.5 21.3333C23.5 22.0406 23.2103 22.7189 22.6945 23.219C22.1788 23.719 21.4793 24 20.75 24H4.25C3.52065 24 2.82118 23.719 2.30546 23.219C1.78973 22.7189 1.5 22.0406 1.5 21.3333Z" stroke="black" stroke-width="2.5" stroke-linejoin="round"/>
<path d="M12.5 11C14.7091 11 16.5 8.98528 16.5 6.5C16.5 4.01472 14.7091 2 12.5 2C10.2909 2 8.5 4.01472 8.5 6.5C8.5 8.98528 10.2909 11 12.5 11Z" stroke="black" stroke-width="2.5"/>
</svg>
